<?xml version='1.0' encoding='utf-8'?>
<!DOCTYPE svg PUBLIC '-//W3C//DTD SVG 1.1//EN' 'http://www.w3.org/Graphics/SVG/1.1/DTD/svg11.dtd'>
<!-- Uploaded to: SVG Repo, www.svgrepo.com, Generator: SVG Repo Mixer Tools -->
<svg fill="#000000" height="800px" width="800px" version="1.1" xmlns="http://www.w3.org/2000/svg" viewBox="0 0 512 512" xmlns:xlink="http://www.w3.org/1999/xlink" enable-background="new 0 0 512 512">
  <g>
    <g>
      <g>
        <path d="m155.6,199.6l-8.8-147.8h218.4l-8.8,147.8c-3.7,61.7-36.2,108.3-75.5,108.3h-49.6c-39.5,0-72-46.5-75.7-108.3zm-47.2-99.8l3.9,65-42.5-65h38.6v-1.42109e-14zm333.8,0l-42.5,65 3.9-65h38.6v-1.42109e-14zm-104.2,360.4h-164c10.1-31.6 43-54.8 82-54.8 38.9,0 71.9,23.2 82,54.8zm-57.2-111.4c45.3,0 84.4-34.2 103.9-85.6l112.7-172.8c8-10.8 3.1-31.5-17.6-31.5h-73.7l1.6-26.3c0-9.3-2.9-21.6-20.6-21.6h-262.2c-18.2,0-20.6,10.7-20.6,21.6l1.6,26.3h-73.7c-20.7,0-25.6,20.8-17.6,31.5l112.7,172.8c19.5,51.4 58.6,85.5 103.9,85.5h4.2v17.3c-59.9,9.1-105.8,57-105.8,114.5 0,11.3 9.2,20.4 20.6,20.4h211.5c11.4,0 20.6-9.1 20.6-20.4 0-57.5-45.9-105.4-105.8-114.5v-17.3h4.3v0.1z"/>
      </g>
    </g>
  </g>
</svg>